<svg width="160" height="40" viewBox="0 0 160 40" fill="none" xmlns="http://www.w3.org/2000/svg">
<rect width="160" height="40" fill="white" fill-opacity="0.01"/>
<path d="M54.3881 40V32.6651H27.9331V0H36.5966V24.9203H48.3027V0H56.9662V24.8292H62.2386V40H54.3881Z" fill="black"/>
<path d="M0 32.6651V0H16.6822C19.7016 0 22.1249 0.789673 23.9521 2.36902C25.7947 3.93318 26.716 6.00607 26.716 8.5877C26.716 11.5793 25.3844 13.9636 22.7211 15.7403C24.285 16.5452 25.516 17.6538 26.4141 19.0661C27.3122 20.4784 27.7612 22.0425 27.7612 23.7585C27.7612 26.4161 26.7935 28.5649 24.8579 30.205C22.9224 31.8451 20.3984 32.6651 17.2861 32.6651H0ZM8.29186 26.5604H13.7965C15.2211 26.5604 17.5416 26.2339 18.3313 25.5809C19.1365 24.9127 19.5391 23.9939 19.5391 22.8246C19.5391 21.6856 19.1365 20.7897 18.3313 20.1367C17.5416 19.4685 15.2211 19.1344 13.7965 19.1344H8.29186V26.5604ZM8.29186 13.2118H13.2856C14.6017 13.2118 16.8448 12.8929 17.588 12.2551C18.3468 11.6173 18.7261 10.7517 18.7261 9.65831C18.7261 8.58011 18.3468 7.7221 17.588 7.08428C16.8448 6.44647 14.6017 6.12756 13.2856 6.12756H8.29186V13.2118Z" fill="black"/>
<path d="M63.125 32.9602V0.295084H84.9607C89.064 0.295084 92.277 1.35051 94.5997 3.46137C96.9223 5.55704 98.0837 8.44239 98.0837 12.1174C98.0837 15.7317 96.9146 18.6018 94.5765 20.7279C92.2538 22.8539 89.0485 23.9169 84.9607 23.9169L71.7885 23.9169V32.9602H63.125ZM71.6956 17.0149L84.0084 17.0149C85.7117 17.0149 87.0278 16.5973 87.9569 15.7621C88.9014 14.9116 89.3737 13.7271 89.3737 12.2085C89.3737 10.6899 88.9014 9.5206 87.9569 8.70055C87.0278 7.86532 85.7117 7.4477 84.0084 7.4477L71.6956 7.4477V17.0149Z" fill="black"/>
<path d="M104.039 19.9688V13.5542H117.42C117.207 10.1152 114.036 8.39565 107.907 8.39565C104.236 8.39565 101.035 8.39565 98.3043 8.39565V0.590514C101.49 0.590501 105.116 0.590494 109.728 0.590494C121.774 0.590494 127.796 6.00326 127.796 16.8288C127.796 19.1913 127.432 21.3444 126.704 23.2882C126.006 25.2021 124.899 26.6424 123.382 28.1675C121.895 29.6927 119.847 30.8739 117.237 31.7112C114.658 32.5486 111.624 32.9672 108.135 32.9672C103.978 32.9672 78.1724 32.9672 72.6177 32.9672V25.4414C75.8035 25.4414 104.115 25.4414 107.452 25.4414C113.885 25.4414 117.222 23.6172 117.465 19.9688H104.039Z" fill="black"/>
<path d="M130.698 32.78V25.0825C131.65 25.4246 132.649 25.5957 133.695 25.5957C135.661 25.5957 137.009 25.0359 137.738 23.9162C137.738 23.7607 137.786 23.683 137.881 23.683L123.516 0.590494H135.217L143.447 15.0058L149.535 0.590494H160L148.346 25.1758C146.919 28.1615 145.222 30.3386 143.256 31.707C141.322 33.0444 138.848 33.713 135.836 33.713C133.774 33.713 132.094 33.3709 130.698 32.78Z" fill="black"/>
</svg>
